<svg width="50" height="50" viewBox="0 0 50 50" fill="none" xmlns="http://www.w3.org/2000/svg">
<circle cx="25" cy="25" r="25" fill="white"/>
<path d="M9.71513 27.9183L7.04217 28.3507L6.60978 26.9356C6.35821 25.6777 6.05947 22.5593 5.94154 21.1573C4.9667 18.2956 5.40433 15.5624 5.745 14.5535C6.34249 12.6667 9.71513 11.4613 11.3268 11.0944C9.09406 11.5975 7.85454 11.304 7.51387 11.0944C10.3126 9.74218 11.7198 8.69658 12.0736 8.34281C15.6271 5.35539 20.9442 3.76996 23.1585 3.35067C22.907 2.97331 20.9573 2.85277 20.0139 2.83967C32.4038 1.67615 36.9426 6.88841 37.6632 9.63998C47.3173 11.967 44.8304 22.8475 42.3802 27.9969L39.6287 27.6824V27.1321C39.5658 24.3334 38.9735 20.5939 38.6853 19.0739C37.5532 19.2626 34.5519 17.8852 33.0975 16.9811C28.2574 18.2979 26.4032 16.8085 26.0179 17.4581C26.4483 18.0682 27.7909 21.2276 27.4371 21.1871C28.5378 22.9481 27.9219 26.6866 27.7516 27.9183C26.6442 22.7204 25.4872 19.2956 23.2313 17.7313C23.2096 17.7337 23.1854 17.7358 23.1585 17.7375C21.9007 17.8161 22.4117 18.0912 18.1271 18.6416C14.6994 19.0818 12.1653 19.1657 11.3268 19.1526L10.6978 20.2925C10.3519 19.2862 10.5537 23.4896 10.6978 25.717L9.71513 24.8916V27.9183Z" fill="url(#paint0_linear_1016_123)"/>
<path d="M7.04217 28.3507L9.71513 27.9183V24.8916L10.6978 25.717C10.5537 23.4896 10.3519 19.2862 10.6978 20.2925L11.3268 19.1526C12.1653 19.1657 14.6994 19.0818 18.1271 18.6416C22.4117 18.0912 21.9007 17.8161 23.1585 17.7375C24.1648 17.6746 21.4814 17.0561 20.0139 16.7548C24.5736 16.8858 26.2107 20.6856 27.7516 27.9183C27.9219 26.6866 28.5378 22.9481 27.4371 21.1871C27.8957 21.2395 25.5032 15.9136 25.9434 17.7375C26.0483 16.4665 27.7516 18.4356 33.0975 16.9811C34.5519 17.8852 37.5532 19.2626 38.6853 19.0739C38.9735 20.5939 39.5658 24.3334 39.6287 27.1321V27.6824L42.3802 27.9969C44.8304 22.8475 47.3173 11.967 37.6632 9.63998C36.9426 6.88841 32.4038 1.67614 20.0139 2.83967C20.9573 2.85277 22.907 2.97331 23.1585 3.35067C20.9442 3.76996 15.6271 5.35539 12.0736 8.34281C11.7198 8.69658 10.3126 9.74218 7.51387 11.0944C7.85454 11.304 9.09406 11.5975 11.3268 11.0944C9.71513 11.4613 6.34249 12.6667 5.745 14.5535C5.40433 15.5624 4.9667 18.2956 5.94154 21.1573C6.05947 22.5593 6.35821 25.6777 6.60978 26.9356L7.04217 28.3507Z" stroke="#202833"/>
<path d="M20.9 30.7482V33.963V37.1778H21.9534V37.8531H21.4334H20.4334V38.8531V39.468H19.8533H18.8533V40.468V40.5094H11.9445V40.4378V39.4378H10.9445H10.4697V38.838V37.838H9.46975H9.11537V32.1217V31.1217H8.11537H7.76099V30.1022L21.7427 30.089V30.7482H20.9ZM22.9 33.1743V32.1859H27.1V33.1743H26.3995H23.8111H22.9ZM28.0767 37.8531V37.1778H29.1V30.7482H28.4228V30.088H42.239V31.0764H41.9749H40.9749V32.0764V37.8682H40.4851H39.4851V38.8682V39.4529H39.0103H38.0103V40.4529V40.4792H31.3573V40.4378V39.4378H30.3573H29.7471V38.8531V37.8531H28.7471H28.0767Z" stroke="url(#paint1_linear_1016_123)" stroke-width="2"/>
<defs>
<linearGradient id="paint0_linear_1016_123" x1="23.6242" y1="15.4874" x2="35.3774" y2="7.97958" gradientUnits="userSpaceOnUse">
<stop stop-color="#1E2630"/>
<stop offset="1" stop-color="#252E3B"/>
</linearGradient>
<linearGradient id="paint1_linear_1016_123" x1="7.15407" y1="28.4984" x2="39.3868" y2="39.2688" gradientUnits="userSpaceOnUse">
<stop stop-color="#202732"/>
<stop offset="0.230844" stop-color="#1E2630"/>
<stop offset="0.230944" stop-color="#3F454D"/>
<stop offset="0.329704" stop-color="#333A43"/>
<stop offset="0.329804" stop-color="#1E2630"/>
<stop offset="0.77252" stop-color="#1E2630"/>
<stop offset="0.77262" stop-color="#333A43"/>
<stop offset="0.87148" stop-color="#29313A"/>
<stop offset="0.87158" stop-color="#1E2630"/>
</linearGradient>
</defs>
</svg>
